<?xml version="1.0" encoding="UTF-8"?>
<svg xmlns="http://www.w3.org/2000/svg" viewBox="0 0 128 128">
  <!-- Background -->
  <circle cx="64" cy="64" r="60" fill="#1a1a1a"/>
  
  <!-- Spider Web Pattern -->
  <g fill="none" stroke="#6b21a8" stroke-width="2">
    <!-- Radial lines -->
    <path d="M64,64 L64,4" />
    <path d="M64,64 L114,64" />
    <path d="M64,64 L64,124" />
    <path d="M64,64 L14,64" />
    <path d="M64,64 L102,26" />
    <path d="M64,64 L102,102" />
    <path d="M64,64 L26,102" />
    <path d="M64,64 L26,26" />
    
    <!-- Concentric circles -->
    <circle cx="64" cy="64" r="20" />
    <circle cx="64" cy="64" r="35" />
    <circle cx="64" cy="64" r="50" />
  </g>
  
  <!-- Spider Symbol -->
  <g transform="translate(44, 44)" fill="#9333ea">
    <!-- Body -->
    <circle cx="20" cy="20" r="12"/>
    <!-- Legs -->
    <path d="M8,8 C0,0 0,0 0,0" stroke="#9333ea" stroke-width="2"/>
    <path d="M32,8 C40,0 40,0 40,0" stroke="#9333ea" stroke-width="2"/>
    <path d="M8,32 C0,40 0,40 0,40" stroke="#9333ea" stroke-width="2"/>
    <path d="M32,32 C40,40 40,40 40,40" stroke="#9333ea" stroke-width="2"/>
  </g>
</svg>